<?xml version="1.0" encoding="utf-8"?>
<!-- Generator: Adobe Illustrator 12.0.0, SVG Export Plug-In . SVG Version: 6.00 Build 51448)  -->
<!DOCTYPE svg PUBLIC "-//W3C//DTD SVG 1.0//EN" "http://www.w3.org/TR/2001/REC-SVG-20010904/DTD/svg10.dtd" [
	<!ENTITY ns_svg "http://www.w3.org/2000/svg">
	<!ENTITY ns_xlink "http://www.w3.org/1999/xlink">
]>
<svg  version="1.0" id="Layer_1" xmlns="&ns_svg;" xmlns:xlink="&ns_xlink;" width="558.09" height="96" viewBox="0 0 558.09 96"
	 overflow="visible" enable-background="new 0 0 558.09 96" xml:space="preserve">
<g>
	<path fill-rule="evenodd" clip-rule="evenodd" d="M60.49,93.12c-6.48,0-12.96,0-19.44,0c-0.003-16.717-0.755-32.686-0.72-49.44
		c-4.365,16.275-8.485,32.794-12.48,49.44c-9.2,0-18.4,0-27.6,0C7.253,62.363,13.894,31.244,20.89,0.48c12.4,0,24.8,0,37.2,0
		c0.648,16.872,1.186,33.854,1.92,50.64c8.214-16.746,16.276-33.644,24.24-50.64c12.32,0,24.64,0,36.96,0
		c-6.874,30.886-13.741,61.78-20.64,92.64c-8.72,0-17.44,0-26.16,0c3.367-16.394,7.145-32.375,10.56-48.72
		c0.046-0.194,0.241-0.239,0.24-0.48C76.783,60.133,68.776,76.767,60.49,93.12z"/>
	<path fill-rule="evenodd" clip-rule="evenodd" d="M150.49,0.48c-0.849,4.751-1.947,9.253-2.64,14.16c-8.24,0-16.48,0-24.72,0
		c1.049-4.791,1.867-9.813,3.36-14.16C134.49,0.48,142.49,0.48,150.49,0.48z"/>
	<path fill-rule="evenodd" clip-rule="evenodd" d="M518.89,2.16c-0.7,4.5-1.846,8.554-2.64,12.96c-6.871-0.711-8.153,4.167-8.88,9.6
		c2.641,0.559,6.319,0.081,9.359,0.24c1.428-5.292,2.651-10.789,3.84-16.32c8.08,0,16.16,0,24.24,0
		c-1.253,5.387-2.253,11.027-3.6,16.32c2.88,0,5.76,0,8.64,0c-1.262,5.298-2.521,10.599-3.84,15.84c-2.8,0-5.6,0-8.4,0
		c-1.681,5.345-2.746,10.942-4.08,16.561c-1.31,5.518-3.082,11.217-3.119,17.04c1.854,2.304,6.583,1.548,9.88,1.36
		c-1.516,5.845-2.492,11.628-4.12,17.359c-7.993-0.12-17.378,1.779-23.76-0.72c-4.383-1.717-7.528-7.034-7.44-12.48
		c0.052-3.177,1.145-6.613,1.92-10.08c2.066-9.235,4.591-20.741,6.48-29.52c-2.401-0.559-5.84-0.081-8.641-0.24
		c-4.631,17.129-8.029,35.49-12.239,53.04c-8.32,0-16.641,0-24.961,0c3.954-17.807,8.476-35.045,12.48-52.8
		c-2.641-0.559-6.319-0.081-9.36-0.24c5.002,14.552-0.731,30.026-7.92,38.64c-7.684,9.208-19.083,15.84-34.8,15.84
		c-18.811,0-30.83-9.814-31.92-27.359c-1.197-19.268,11.083-35.515,25.92-42c16.85-7.365,40.806-3.43,47.76,12.96
		c1.487-4.273,2.353-9.167,3.601-13.68c3.279,0,6.56,0,9.84,0c1.853-8.279,3.963-14.699,8.88-18.72
		C497.633,1.162,508.647,1.81,518.89,2.16z M425.77,50.4c-3.268,7.79-6.854,26.537,4.32,27.119
		c10.198,0.531,16.631-17.813,16.56-27.84c-0.048-6.924-3.134-12.64-9.12-11.76C431.956,38.739,428.182,44.648,425.77,50.4z"/>
	<path fill-rule="evenodd" clip-rule="evenodd" d="M327.61,61.44c-7.2,2.239-14.057,4.822-21.359,6.96
		c13.439,0.56,27.92,0.08,41.76,0.239c-0.865,2.969-0.699,6.258,0.96,8.16c4.385,5.026,17.957,2.749,18-3.6
		c0.052-7.656-12.937-7.847-18.96-9.84c-8.233-2.726-16.613-8.002-17.04-18.24c-0.532-12.774,10.555-20.263,24.24-22.56
		c18.892-3.171,44.043-0.058,40.08,21.84c-8,0-16,0-24,0c4.137-10.824-15.742-11.336-16.08-3.84
		c-0.313,6.943,14.365,7.069,20.64,8.64c9.778,2.447,18.149,7.886,17.521,20.399c-0.628,12.484-11.333,21.896-23.761,24.721
		c-14.035,3.189-30.895,1.968-40.319-5.04c-4.778-3.554-7.589-8.74-7.44-15.84c-6.569,12.292-18.189,22.021-36.24,22.079
		c-17.231,0.057-30.625-9.104-31.92-25.92c-0.773-10.032,1.848-16.747,4.8-23.52c-24.803-0.002-21.999,27.602-27.36,47.04
		c-8.56,0-17.12,0-25.68,0c4.961-22.879,10.672-45.008,15.6-67.92c8.014-0.386,16.068-0.732,24.24-0.96
		c-0.533,2.347-1.008,4.751-1.68,6.96c4.707-4.253,11.627-8.373,21.6-8.16c-1.331,6.109-2.64,12.24-4.08,18.24
		c7.416-9.716,17.469-18.551,33.84-19.68c21.221-1.463,35.239,10.501,34.08,31.44C328.878,56.135,328.283,58.212,327.61,61.44z
		 M289.93,40.8c-4.906,4.229-10.55,14.815-10.32,25.2c0.08,3.583,1.075,7.707,3.84,9.84c4.677,3.608,10.509,0.062,13.2-3.12
		c4.489-5.308,8.188-14.701,7.92-23.76c-0.189-6.428-3.107-11.979-9.359-10.8C293.271,38.526,291.296,39.623,289.93,40.8z"/>
	<path fill-rule="evenodd" clip-rule="evenodd" d="M212.65,50.16c-7.6,0-15.2,0-22.8,0c0.494-5.151-0.849-10.293-5.04-11.04
		c-3.108-0.554-6.497,1.485-8.16,2.88c-6.246,5.24-14.378,23.052-8.88,31.92c4.743,7.65,16.217,0.333,18.24-6.479
		c7.44,0,14.88,0,22.32,0c-3.933,19.264-20.523,29.487-41.52,28.079c-14.764-0.989-24.589-11.649-25.68-26.64
		c-0.935-12.839,4.021-24.282,10.56-31.92c6.632-7.747,16.213-13.714,28.8-14.64C201.875,20.747,211.558,30.974,212.65,50.16z"/>
	<path fill-rule="evenodd" clip-rule="evenodd" d="M120.97,23.76c8.16,0,16.32,0,24.48,0c-4.337,22.783-9.864,46.456-14.64,69.601
		c-8.48,0-16.96,0-25.44,0C110.466,70.056,115.502,46.691,120.97,23.76z"/>
	<path fill-rule="evenodd" clip-rule="evenodd" fill="#FFFFFF" d="M437.53,37.92c5.986-0.88,9.072,4.835,9.12,11.76
		c0.071,10.027-6.361,28.371-16.56,27.84c-11.174-0.582-7.588-19.329-4.32-27.119C428.182,44.648,431.956,38.739,437.53,37.92z"/>
	<path fill-rule="evenodd" clip-rule="evenodd" fill="#FFFFFF" d="M295.21,38.16c6.252-1.18,9.17,4.372,9.359,10.8
		c0.269,9.059-3.431,18.452-7.92,23.76c-2.69,3.182-8.522,6.729-13.2,3.12c-2.765-2.133-3.76-6.257-3.84-9.84
		c-0.23-10.385,5.414-20.972,10.32-25.2C291.296,39.623,293.271,38.526,295.21,38.16z"/>
	<path fill-rule="evenodd" clip-rule="evenodd" fill="#FFFFFF" d="M0.25,0C192.01,0,365.771,0,557.53,0
		c1.116,31,0.164,64.074,0.48,96c-192,0-366,0-558,0c0-31.76,0-63.52,0-95.28C-0.01,0.379-0.029,0.041,0.25,0z M85.21,43.92
		c0,0.241-0.194,0.286-0.24,0.48c-3.415,16.345-7.193,32.327-10.56,48.72c8.72,0,17.44,0,26.16,0
		c6.899-30.86,13.766-61.754,20.64-92.64c-12.32,0-24.64,0-36.96,0c-7.964,16.996-16.026,33.894-24.24,50.64
		c-0.734-16.786-1.272-33.768-1.92-50.64c-12.4,0-24.8,0-37.2,0C13.894,31.244,7.253,62.363,0.25,93.12c9.2,0,18.4,0,27.6,0
		c3.995-16.646,8.115-33.165,12.48-49.44c-0.035,16.754,0.717,32.723,0.72,49.44c6.48,0,12.96,0,19.44,0
		C68.776,76.767,76.783,60.133,85.21,43.92z M126.49,0.48c-1.493,4.347-2.311,9.37-3.36,14.16c8.24,0,16.48,0,24.72,0
		c0.693-4.907,1.791-9.409,2.64-14.16C142.49,0.48,134.49,0.48,126.49,0.48z M492.01,5.76c-4.917,4.021-7.027,10.441-8.88,18.72
		c-3.28,0-6.561,0-9.84,0c-1.248,4.513-2.113,9.407-3.601,13.68c-6.954-16.39-30.91-20.325-47.76-12.96
		c-14.837,6.485-27.117,22.732-25.92,42c1.09,17.545,13.109,27.359,31.92,27.359c15.717,0,27.116-6.632,34.8-15.84
		c7.188-8.613,12.922-24.088,7.92-38.64c3.041,0.159,6.72-0.319,9.36,0.24c-4.005,17.755-8.526,34.994-12.48,52.8
		c8.32,0,16.641,0,24.961,0c4.21-17.55,7.608-35.911,12.239-53.04c2.801,0.159,6.239-0.319,8.641,0.24
		c-1.89,8.779-4.414,20.285-6.48,29.52c-0.775,3.467-1.868,6.903-1.92,10.08c-0.088,5.446,3.058,10.764,7.44,12.48
		c6.382,2.499,15.743,0.215,23.76,1.32c1.628-5.731,2.604-12.115,4.12-17.96c-3.297,0.188-8.025,0.943-9.88-1.36
		c0.037-5.823,1.81-11.522,3.119-17.04c1.334-5.618,2.399-11.216,4.08-16.561c2.801,0,5.601,0,8.4,0
		c1.318-5.241,2.578-10.542,3.84-15.84c-2.88,0-5.76,0-8.64,0c1.347-5.292,2.347-10.933,3.6-16.32c-8.08,0-16.16,0-24.24,0
		c-1.188,5.531-2.412,11.027-3.84,16.32c-3.04-0.159-6.719,0.319-9.359-0.24c0.727-5.434,2.009-10.312,8.88-9.6
		c0.794-4.406,1.939-8.46,2.64-12.96C508.647,1.81,497.633,1.162,492.01,5.76z M329.05,53.04
		c1.159-20.938-12.859-32.903-34.08-31.44c-16.371,1.129-26.424,9.964-33.84,19.68c1.44-6,2.749-12.13,4.08-18.24
		c-9.973-0.212-16.893,3.907-21.6,8.16c0.671-2.209,1.147-4.613,1.68-6.96c-8.172,0.228-16.226,0.574-24.24,0.96
		c-4.928,22.912-10.639,45.041-15.6,67.92c8.56,0,17.12,0,25.68,0c5.361-19.438,2.557-47.042,27.36-47.04
		c-2.952,6.772-5.573,13.487-4.8,23.52c1.295,16.816,14.689,25.977,31.92,25.92c18.05-0.059,29.67-9.787,36.24-22.079
		c-0.148,7.1,2.662,12.286,7.44,15.84c9.425,7.008,26.284,8.229,40.319,5.04c12.428-2.824,23.133-12.236,23.761-24.721
		C394,57.086,385.628,51.647,375.85,49.2c-6.274-1.571-20.953-1.697-20.64-8.64c0.338-7.496,20.217-6.984,16.08,3.84c8,0,16,0,24,0
		c3.963-21.897-21.188-25.011-40.08-21.84c-13.686,2.297-24.772,9.786-24.24,22.56c0.427,10.238,8.807,15.515,17.04,18.24
		c6.023,1.993,19.012,2.184,18.96,9.84c-0.043,6.349-13.615,8.626-18,3.6c-1.659-1.902-1.825-5.191-0.96-8.16
		c-13.84-0.159-28.32,0.32-41.76-0.239c7.303-2.138,14.159-4.721,21.359-6.96C328.283,58.212,328.878,56.135,329.05,53.04z
		 M180.49,22.32c-12.586,0.926-22.168,6.894-28.8,14.64c-6.539,7.638-11.495,19.081-10.56,31.92
		c1.091,14.99,10.916,25.65,25.68,26.64c20.997,1.408,37.587-8.815,41.52-28.079c-7.44,0-14.88,0-22.32,0
		c-2.023,6.813-13.497,14.13-18.24,6.479c-5.498-8.868,2.635-26.68,8.88-31.92c1.663-1.395,5.052-3.434,8.16-2.88
		c4.191,0.747,5.534,5.889,5.04,11.04c7.6,0,15.2,0,22.8,0C211.558,30.974,201.875,20.747,180.49,22.32z M105.37,93.36
		c8.48,0,16.96,0,25.44,0c4.776-23.145,10.303-46.817,14.64-69.601c-8.16,0-16.32,0-24.48,0
		C115.502,46.691,110.466,70.056,105.37,93.36z"/>
</g>
</svg>
